<svg xmlns="http://www.w3.org/2000/svg" viewBox="0 0 500 500"><g id="freepik--background-complete--inject-10"><rect y="382.4" width="500" height="0.25" style="fill:#ebebeb"></rect><rect x="52.46" y="391.92" width="33.12" height="0.25" style="fill:#ebebeb"></rect><rect x="171.14" y="392.05" width="53.86" height="0.25" style="fill:#ebebeb"></rect><rect x="105.77" y="397.08" width="19.19" height="0.25" style="fill:#ebebeb"></rect><rect x="426.77" y="396.96" width="19.23" height="0.25" style="fill:#ebebeb"></rect><rect x="387.57" y="396.96" width="30.29" height="0.25" style="fill:#ebebeb"></rect><rect x="328.33" y="395.31" width="42.56" height="0.25" style="fill:#ebebeb"></rect><path d="M237,337.8H43.91a5.71,5.71,0,0,1-5.7-5.71V60.66A5.71,5.71,0,0,1,43.91,55H237a5.71,5.71,0,0,1,5.71,5.71V332.09A5.71,5.71,0,0,1,237,337.8ZM43.91,55.2a5.46,5.46,0,0,0-5.45,5.46V332.09a5.46,5.46,0,0,0,5.45,5.46H237a5.47,5.47,0,0,0,5.46-5.46V60.66A5.47,5.47,0,0,0,237,55.2Z" style="fill:#ebebeb"></path><path d="M453.31,337.8H260.21a5.72,5.72,0,0,1-5.71-5.71V60.66A5.72,5.72,0,0,1,260.21,55h193.1A5.71,5.71,0,0,1,459,60.66V332.09A5.71,5.71,0,0,1,453.31,337.8ZM260.21,55.2a5.47,5.47,0,0,0-5.46,5.46V332.09a5.47,5.47,0,0,0,5.46,5.46h193.1a5.47,5.47,0,0,0,5.46-5.46V60.66a5.47,5.47,0,0,0-5.46-5.46Z" style="fill:#ebebeb"></path><rect x="303.78" y="91.02" width="116.1" height="138.62" style="fill:#e6e6e6"></rect><rect x="306.68" y="91.02" width="116.1" height="138.62" style="fill:#f5f5f5"></rect><rect x="301.26" y="107.48" width="126.93" height="105.69" transform="translate(525.06 -204.4) rotate(90)" style="fill:#fff"></rect><rect x="353.01" y="159.24" width="126.93" height="2.19" transform="translate(576.81 -256.15) rotate(90)" style="fill:#e6e6e6"></rect><rect x="308.83" y="193.72" width="111.79" height="7.85" style="fill:#f5f5f5"></rect><path d="M428.45,81.35H298.11a.8.8,0,0,0-.8.8h0a.8.8,0,0,0,.8.8H428.45a.8.8,0,0,0,.8-.8h0A.8.8,0,0,0,428.45,81.35Z" style="fill:#e6e6e6"></path><circle cx="429.25" cy="82.15" r="4" style="fill:#e6e6e6"></circle><path d="M304.86,86.63h0a1.08,1.08,0,0,1-1.08-1.08V83.23a1.09,1.09,0,0,1,1.08-1.08h0a1.08,1.08,0,0,1,1.08,1.08v2.32A1.08,1.08,0,0,1,304.86,86.63Z" style="fill:#e6e6e6"></path><path d="M416.37,86.63h0a1.08,1.08,0,0,1-1.08-1.08V83.23a1.09,1.09,0,0,1,1.08-1.08h0a1.08,1.08,0,0,1,1.08,1.08v2.32A1.08,1.08,0,0,1,416.37,86.63Z" style="fill:#e6e6e6"></path><rect x="308.83" y="82.15" width="119.36" height="58.22" style="fill:#e0e0e0;opacity:0.5"></rect><circle cx="317.74" cy="82.15" r="4" style="fill:#e6e6e6"></circle><polygon points="89.71 244.53 47.36 244.53 51.11 194.96 85.96 194.96 89.71 244.53" style="fill:#ebebeb"></polygon><polygon points="80.42 244.53 73.14 244.53 71.59 194.96 78.31 194.96 80.42 244.53" style="fill:#f5f5f5"></polygon><rect x="66.42" y="244.53" width="4.24" height="137.87" style="fill:#f0f0f0"></rect><rect x="64.12" y="264.84" width="8.84" height="16.05" rx="2.82" style="fill:#f0f0f0"></rect><rect x="64.12" y="290.56" width="8.84" height="16.05" rx="2.82" style="fill:#f0f0f0"></rect><path d="M75.24,382.4H61.83a2.86,2.86,0,0,1,2.86-2.86h7.69a2.86,2.86,0,0,1,2.86,2.86Z" style="fill:#f0f0f0"></path><rect x="66.42" y="244.53" width="4.24" height="2.59" style="fill:#e0e0e0"></rect><rect x="96.32" y="86.04" width="117.04" height="117.36" transform="translate(309.67 289.44) rotate(180)" style="fill:#f0f0f0"></rect><rect x="94.29" y="86.04" width="2.02" height="117.36" style="fill:#e0e0e0"></rect><rect x="106.65" y="93.46" width="96.37" height="102.53" transform="translate(309.67 289.44) rotate(180)" style="fill:#fafafa"></rect><rect x="128" y="116.18" width="53.66" height="57.09" rx="21.28" transform="translate(309.67 289.44) rotate(180)" style="fill:#f5f5f5"></rect><rect x="362.97" y="247.44" width="44.55" height="134.95" style="fill:#e6e6e6"></rect><polygon points="385.77 382.4 407.52 382.4 407.52 363.77 362.97 363.77 385.77 382.4" style="fill:#fafafa"></polygon><rect x="185.3" y="247.44" width="44.55" height="134.95" style="fill:#e6e6e6"></rect><rect x="210.87" y="247.44" width="196.64" height="128.54" style="fill:#fafafa"></rect><polygon points="232.62 382.4 210.88 382.4 210.88 363.77 255.43 363.77 232.62 382.4" style="fill:#fafafa"></polygon><rect x="227.75" y="295.34" width="162.9" height="32.17" style="fill:#f0f0f0"></rect><rect x="227.75" y="334.39" width="162.9" height="32.17" style="fill:#f0f0f0"></rect><path d="M351.85,298.78H266.54a6.22,6.22,0,0,1-6.22-6.22h97.75A6.21,6.21,0,0,1,351.85,298.78Z" style="fill:#fafafa"></path><rect x="227.75" y="256.3" width="162.9" height="32.17" style="fill:#f0f0f0"></rect><path d="M351.85,259.74H266.54a6.23,6.23,0,0,1-6.22-6.23h97.75A6.22,6.22,0,0,1,351.85,259.74Z" style="fill:#fafafa"></path><path d="M351.85,337.83H266.54a6.23,6.23,0,0,1-6.22-6.23h97.75A6.22,6.22,0,0,1,351.85,337.83Z" style="fill:#fafafa"></path></g><g id="freepik--Shadow--inject-10"><ellipse id="freepik--path--inject-10" cx="250" cy="416.24" rx="193.89" ry="11.32" style="fill:#f5f5f5"></ellipse></g><g id="freepik--complete-list--inject-10"><path d="M75.55,217.49H224.79a17.64,17.64,0,0,1-17.38-16.42l-2.64-44.48H55.54l2.63,44.48A17.64,17.64,0,0,0,75.55,217.49Z" style="fill:#407BFF"></path><path d="M75.55,217.49H224.79a17.64,17.64,0,0,1-17.38-16.42l-2.64-44.48H55.54l2.63,44.48A17.64,17.64,0,0,0,75.55,217.49Z" style="fill:#fff;opacity:0.6000000000000001"></path><path d="M235.85,127H103a15.3,15.3,0,0,0-15.44,16.41L91,201.08a15.28,15.28,0,0,1-15.44,16.41H224.79a15.28,15.28,0,0,0,15.44-16.41l.37,6.24-3.78-63.87A15.28,15.28,0,0,1,252.26,127Z" style="fill:#407BFF"></path><path d="M252.26,127H103a17.62,17.62,0,0,1,17.38,16.41L133.23,360.1H282.46L269.64,143.45A17.64,17.64,0,0,0,252.26,127Z" style="fill:#407BFF"></path><path d="M252.26,127H103a17.62,17.62,0,0,1,17.38,16.41L133.23,360.1H282.46L269.64,143.45A17.64,17.64,0,0,0,252.26,127Z" style="fill:#fff;opacity:0.8"></path><path d="M170.66,188.68H143L141.33,161H169ZM146,185.42h21.17L166,164.25H144.79Z" style="fill:#fff"></path><path d="M174.52,253.79H146.83l-1.64-27.69h27.69Zm-24.63-3.26h21.17l-1.25-21.17H148.64Z" style="fill:#fff"></path><path d="M178.37,318.9H150.68L149,291.21h27.69Zm-24.62-3.26h21.17l-1.26-21.17H152.49Z" style="fill:#fff"></path><rect x="184.18" y="160.99" width="63.66" height="3.26" style="fill:#fff"></rect><rect x="184.9" y="173.21" width="56.18" height="3.26" style="fill:#fff"></rect><rect x="185.62" y="185.42" width="63.66" height="3.26" style="fill:#fff"></rect><rect x="188.03" y="226.1" width="63.66" height="3.26" style="fill:#fff"></rect><rect x="188.75" y="238.32" width="37.37" height="3.26" style="fill:#fff"></rect><rect x="189.48" y="250.53" width="19.29" height="3.26" style="fill:#fff"></rect><rect x="221.31" y="250.53" width="31.83" height="3.26" style="fill:#fff"></rect><rect x="191.88" y="291.21" width="63.66" height="3.26" style="fill:#fff"></rect><rect x="192.61" y="303.43" width="63.66" height="3.26" style="fill:#fff"></rect><rect x="193.33" y="315.64" width="35.21" height="3.26" style="fill:#fff"></rect><path d="M158.63,182.16a2.7,2.7,0,0,1-1.86-.74L150,175a2.71,2.71,0,1,1,3.73-3.94l4.82,4.55,10.85-11.53a2.71,2.71,0,0,1,3.95,3.72l-12.71,13.51a2.67,2.67,0,0,1-1.9.85Z" style="fill:#407BFF"></path><path d="M162.49,247.27a2.68,2.68,0,0,1-1.86-.74l-6.8-6.42a2.71,2.71,0,1,1,3.72-3.94l4.83,4.55,10.84-11.53a2.71,2.71,0,0,1,3.95,3.72l-12.71,13.51a2.66,2.66,0,0,1-1.89.85Z" style="fill:#407BFF"></path><path d="M166.34,312.39a2.69,2.69,0,0,1-1.86-.75l-6.8-6.42a2.71,2.71,0,1,1,3.72-3.94l4.83,4.55,10.85-11.53A2.71,2.71,0,0,1,181,298l-12.71,13.51a2.7,2.7,0,0,1-1.9.85Z" style="fill:#407BFF"></path></g></svg>